<svg xmlns="http://www.w3.org/2000/svg" version="1.1" xmlns:xlink="http://www.w3.org/1999/xlink" xmlns:svgjs="http://svgjs.com/svgjs" width="512" height="512" x="0" y="0" viewBox="0 0 24 24" style="enable-background:new 0 0 512 512" xml:space="preserve" class=""><g><path d="m22.108 8.34-6.446-6.447c-.633-.635-1.739-.635-2.37 0L11.91 3.275a6.189 6.189 0 0 0-1.827 4.408c0 .532.067 1.054.195 1.557l-7.949 7.949c-.6.599-.929 1.395-.929 2.24s.329 1.643.929 2.241c.599.6 1.395.929 2.241.929s1.642-.329 2.24-.929l7.948-7.948a6.28 6.28 0 0 0 1.56.196c1.665 0 3.23-.648 4.408-1.827l1.382-1.381c.317-.316.492-.737.492-1.186s-.175-.869-.492-1.185zM5.963 20.822a1.973 1.973 0 0 1-2.786 0 1.972 1.972 0 0 1 0-2.786l7.562-7.562a6.234 6.234 0 0 0 1.17 1.617c.48.481 1.026.873 1.615 1.17l-7.562 7.562zM21.261 9.861l-1.382 1.382a5.005 5.005 0 0 1-3.561 1.475 5.034 5.034 0 0 1-1.577-.251 5.02 5.02 0 0 1-1.984-1.225 5 5 0 0 1-1.475-3.56c0-1.345.523-2.608 1.475-3.561l1.383-1.382c.18-.18.491-.18.673 0l6.447 6.448a.472.472 0 0 1 0 .673zm-10.267 3.144a.6.6 0 0 1 0 .848l-1.693 1.693a.6.6 0 1 1-.848-.848l1.693-1.693a.6.6 0 0 1 .848 0z" fill="#000000" data-original="#000000" class=""></path></g></svg>
