<?xml version="1.0" encoding="UTF-8" standalone="no"?>
<!-- Created with Inkscape (http://www.inkscape.org/) -->

<svg
   width="24mm"
   height="24mm"
   viewBox="0 0 24 24"
   version="1.1"
   id="svg5"
   xml:space="preserve"
   inkscape:export-filename="tmp (copy).svg"
   inkscape:export-xdpi="96"
   inkscape:export-ydpi="96"
   xmlns:inkscape="http://www.inkscape.org/namespaces/inkscape"
   xmlns:sodipodi="http://sodipodi.sourceforge.net/DTD/sodipodi-0.dtd"
   xmlns="http://www.w3.org/2000/svg"
   xmlns:svg="http://www.w3.org/2000/svg"><sodipodi:namedview
     id="namedview7"
     pagecolor="#505050"
     bordercolor="#ffffff"
     borderopacity="1"
     inkscape:showpageshadow="0"
     inkscape:pageopacity="0"
     inkscape:pagecheckerboard="1"
     inkscape:deskcolor="#505050"
     inkscape:document-units="mm"
     showgrid="false" /><defs
     id="defs2" /><g
     inkscape:label="Layer 1"
     inkscape:groupmode="layer"
     id="layer1"><g
       id="g1289"
       transform="matrix(0.86814064,0,0,0.86814064,1.5823123,1.5823123)"><path
         d="m 18.80649,14.47416 c -0.362464,1.259313 -1.07994,2.38874 -2.068342,3.250957 -0.987161,0.862222 -2.201938,1.421366 -3.4996,1.610635 -1.013142,0.147218 -2.047313,0.08784 -3.038187,-0.174413 -0.9908737,-0.262248 -1.9186557,-0.722432 -2.7276847,-1.352088 -0.807792,-0.629656 -1.481979,-1.416418 -1.978035,-2.312041 -0.497294,-0.896857 -0.809029,-1.884021 -0.915414,-2.903345 -0.08167,-1.023037 0.04948,-2.053498 0.385965,-3.0233387 0.335228,-0.969845 0.869642,-1.859282 1.567338,-2.612643 0.697692,-0.754598 1.543833,-1.354564 2.485224,-1.764026 0.941392,-0.409463 1.9570047,-0.619761 2.9837567,-0.616051 0.962421,0.0012 1.91618,0.185575 2.809331,0.544301 0.13979,0.06308 0.299347,0.07176 0.445335,0.02354 0.147218,-0.04826 0.269677,-0.149694 0.346391,-0.283274 l 1.780108,-3.278168 c 0.03978,-0.07546 0.06186,-0.15834 0.06803,-0.242441 0.0073,-0.0841 -0.0037,-0.169461 -0.02963,-0.249869 -0.0272,-0.08041 -0.06803,-0.15464602 -0.123717,-0.21893902 -0.05565,-0.06433 -0.122458,-0.116289 -0.199173,-0.154646 -1.91247,-0.865932 -4.014213,-1.230864 -6.107294,-1.060149 -2.0918437,0.17072 -4.1069887,0.87088 -5.8549377,2.03493702 -1.746707,1.1653 -3.169311,2.754905 -4.131732,4.620369 -0.96365902,1.866701 -1.43497202,3.9461767 -1.37188402,6.0454397 0.121241,3.117357 1.40280902,6.07637 3.59238402,8.298103 2.18957,2.221738 5.130026,3.546611 8.2449057,3.713612 3.263329,0.144742 6.452431,-1.006951 8.868382,-3.203946 2.417188,-2.196994 3.868245,-5.261158 4.035246,-8.523245 v -2.474094 c -0.0037,-0.163292 -0.0705,-0.3191547 -0.185575,-0.4342017 -0.11503,-0.115031 -0.270934,-0.180623 -0.432963,-0.184317 H 12.620066 c -0.163292,0 -0.320413,0.06555 -0.436678,0.180623 -0.116289,0.116289 -0.181841,0.2733697 -0.181841,0.4379157 v 3.711136 c 0,0.164509 0.06555,0.321631 0.181841,0.436678 0.116289,0.116288 0.27337,0.18184 0.436678,0.18184 h 6.186464"
         fill="#ffb8b8"
         id="path3678"
         style="stroke-width:1.23705" /></g></g></svg>
